<?xml version="1.0" encoding="utf-8"?>
<!-- Generator: Adobe Illustrator 24.1.0, SVG Export Plug-In . SVG Version: 6.00 Build 0)  -->
<svg version="1.1" id="Layer_1" xmlns="http://www.w3.org/2000/svg" xmlns:xlink="http://www.w3.org/1999/xlink" x="0px" y="0px"
	 viewBox="0 0 90 20" style="enable-background:new 0 0 90 20;" xml:space="preserve">
<style type="text/css">
	.st0{fill:#555555;}
	.st1{fill:#44CC11;}
	.st2{fill:url(#SVGID_1_);}
	.st3{enable-background:new    ;}
	.st4{fill:#FFFFFF;}
</style>
<path class="st0" d="M3,0h84c1.7,0,3,1.3,3,3v14c0,1.7-1.3,3-3,3H3c-1.7,0-3-1.3-3-3V3C0,1.3,1.3,0,3,0z"/>
<path class="st1" d="M40,0h47c1.7,0,3,1.3,3,3v14c0,1.7-1.3,3-3,3H40c-1.7,0-3-1.3-3-3V3C37,1.3,38.3,0,40,0z"/>
<path class="st1" d="M37,0h4v20h-4V0z"/>
<linearGradient id="SVGID_1_" gradientUnits="userSpaceOnUse" x1="-35.1" y1="5.3" x2="-35.1" y2="6.3" gradientTransform="matrix(90 0 0 20 3204 -106)">
	<stop  offset="0" style="stop-color:#BBBBBB;stop-opacity:0.1"/>
	<stop  offset="1" style="stop-color:#000000;stop-opacity:0.1"/>
</linearGradient>
<path class="st2" d="M3,0h84c1.7,0,3,1.3,3,3v14c0,1.7-1.3,3-3,3H3c-1.7,0-3-1.3-3-3V3C0,1.3,1.3,0,3,0z"/>
<g>
	<g class="st3">
		<path class="st4" d="M9.6,13.3c0,1-0.2,1.8-0.7,2.3c-0.5,0.5-1.2,0.7-2.1,0.7c-0.3,0-0.7,0-1-0.1S5.2,16.1,4.9,16v-1
			c0.3,0.2,0.6,0.3,0.9,0.3c0.3,0.1,0.6,0.1,0.9,0.1c0.6,0,1.1-0.2,1.5-0.5c0.3-0.3,0.5-0.8,0.5-1.5v-0.5c-0.2,0.4-0.5,0.6-0.8,0.8
			C7.5,13.9,7.1,14,6.6,14c-0.7,0-1.3-0.3-1.8-0.8c-0.5-0.6-0.7-1.3-0.7-2.2c0-0.9,0.2-1.7,0.7-2.2s1-0.8,1.8-0.8
			c0.4,0,0.8,0.1,1.1,0.3s0.6,0.4,0.8,0.8V8h1V13.3z M8.6,10.9c0-0.7-0.1-1.3-0.4-1.7C7.8,8.9,7.4,8.7,6.9,8.7
			c-0.5,0-0.9,0.2-1.2,0.6c-0.3,0.4-0.4,0.9-0.4,1.7c0,0.7,0.1,1.3,0.4,1.7c0.3,0.4,0.7,0.6,1.2,0.6c0.5,0,0.9-0.2,1.2-0.6
			C8.4,12.2,8.6,11.6,8.6,10.9z"/>
		<path class="st4" d="M16.3,10.6V14h-1v-0.9c-0.2,0.4-0.5,0.6-0.8,0.8s-0.7,0.3-1.2,0.3c-0.6,0-1.1-0.2-1.5-0.5
			c-0.4-0.3-0.5-0.8-0.5-1.4c0-0.7,0.2-1.2,0.7-1.5c0.5-0.3,1.1-0.5,2-0.5h1.4v-0.1c0-0.5-0.1-0.8-0.4-1.1c-0.3-0.2-0.7-0.4-1.3-0.4
			c-0.3,0-0.7,0-1,0.1S12,9,11.7,9.2V8.3C12,8.1,12.4,8,12.7,7.9c0.3-0.1,0.7-0.1,1-0.1c0.9,0,1.5,0.2,1.9,0.7S16.3,9.7,16.3,10.6z
			 M14.3,11c-0.8,0-1.4,0.1-1.7,0.3s-0.5,0.5-0.5,0.9c0,0.4,0.1,0.6,0.3,0.8c0.2,0.2,0.5,0.3,0.9,0.3c0.5,0,1-0.2,1.3-0.6
			c0.3-0.4,0.5-0.9,0.5-1.5V11H14.3z"/>
		<path class="st4" d="M23,9.1c0.2-0.4,0.5-0.8,0.9-1s0.7-0.3,1.2-0.3c0.6,0,1.1,0.2,1.5,0.7s0.5,1.1,0.5,1.9V14h-1v-3.6
			c0-0.6-0.1-1-0.3-1.3s-0.5-0.4-0.9-0.4c-0.5,0-0.9,0.2-1.2,0.5s-0.4,0.8-0.4,1.4V14h-1v-3.6c0-0.6-0.1-1-0.3-1.3s-0.5-0.4-0.9-0.4
			c-0.5,0-0.9,0.2-1.2,0.5s-0.4,0.8-0.4,1.4V14h-1V8h1v0.9c0.2-0.4,0.5-0.6,0.8-0.8s0.7-0.3,1.1-0.3c0.4,0,0.8,0.1,1.1,0.3
			C22.6,8.4,22.9,8.7,23,9.1z"/>
		<path class="st4" d="M34.2,10.7v0.5h-4.5c0,0.7,0.2,1.2,0.6,1.6c0.4,0.4,0.9,0.5,1.5,0.5c0.4,0,0.7,0,1.1-0.1
			c0.4-0.1,0.7-0.2,1.1-0.4v0.9c-0.4,0.2-0.7,0.3-1.1,0.3c-0.4,0.1-0.8,0.1-1.1,0.1c-1,0-1.7-0.3-2.3-0.8c-0.6-0.6-0.8-1.3-0.8-2.3
			c0-1,0.3-1.8,0.8-2.3c0.5-0.6,1.2-0.9,2.2-0.9c0.8,0,1.4,0.3,1.9,0.8C34,9.1,34.2,9.8,34.2,10.7z M33.2,10.5c0-0.5-0.2-1-0.5-1.3
			c-0.3-0.3-0.7-0.5-1.2-0.5c-0.6,0-1,0.2-1.3,0.5c-0.3,0.3-0.5,0.8-0.6,1.3L33.2,10.5z"/>
	</g>
	<g class="st3">
		<path class="st4" d="M49.6,8.9V5.6h1V14h-1v-0.9c-0.2,0.4-0.5,0.6-0.8,0.8c-0.3,0.2-0.7,0.3-1.1,0.3c-0.7,0-1.3-0.3-1.8-0.9
			c-0.5-0.6-0.7-1.3-0.7-2.3s0.2-1.7,0.7-2.3c0.5-0.6,1-0.9,1.8-0.9c0.4,0,0.8,0.1,1.1,0.3C49.2,8.3,49.4,8.5,49.6,8.9z M46.3,11
			c0,0.7,0.1,1.3,0.4,1.7c0.3,0.4,0.7,0.6,1.2,0.6c0.5,0,0.9-0.2,1.2-0.6c0.3-0.4,0.5-1,0.5-1.7c0-0.7-0.2-1.3-0.5-1.7
			c-0.3-0.4-0.7-0.6-1.2-0.6c-0.5,0-0.9,0.2-1.2,0.6C46.4,9.7,46.3,10.3,46.3,11z"/>
		<path class="st4" d="M57.8,10.7v0.5h-4.5c0,0.7,0.2,1.2,0.6,1.6c0.4,0.4,0.9,0.5,1.5,0.5c0.4,0,0.7,0,1.1-0.1
			c0.4-0.1,0.7-0.2,1.1-0.4v0.9c-0.4,0.2-0.7,0.3-1.1,0.3c-0.4,0.1-0.8,0.1-1.1,0.1c-1,0-1.7-0.3-2.3-0.8c-0.6-0.6-0.8-1.3-0.8-2.3
			c0-1,0.3-1.8,0.8-2.3c0.5-0.6,1.2-0.9,2.2-0.9c0.8,0,1.4,0.3,1.9,0.8C57.6,9.1,57.8,9.8,57.8,10.7z M56.8,10.5
			c0-0.5-0.2-1-0.5-1.3c-0.3-0.3-0.7-0.5-1.2-0.5c-0.6,0-1,0.2-1.3,0.5c-0.3,0.3-0.5,0.8-0.6,1.3L56.8,10.5z"/>
		<path class="st4" d="M60.4,6.3V8h2v0.8h-2V12c0,0.5,0.1,0.8,0.2,0.9c0.1,0.1,0.4,0.2,0.8,0.2h1V14h-1c-0.8,0-1.3-0.1-1.6-0.4
			c-0.3-0.3-0.4-0.8-0.4-1.6V8.8h-0.7V8h0.7V6.3H60.4z"/>
		<path class="st4" d="M68.5,10.6V14h-1v-0.9c-0.2,0.4-0.5,0.6-0.8,0.8c-0.3,0.2-0.7,0.3-1.2,0.3c-0.6,0-1.1-0.2-1.5-0.5
			c-0.4-0.3-0.5-0.8-0.5-1.4c0-0.7,0.2-1.2,0.7-1.5s1.1-0.5,2-0.5h1.4v-0.1c0-0.5-0.1-0.8-0.4-1.1s-0.7-0.4-1.3-0.4
			c-0.3,0-0.7,0-1,0.1c-0.3,0.1-0.6,0.2-0.9,0.4V8.3c0.4-0.1,0.7-0.2,1.1-0.3c0.3-0.1,0.7-0.1,1-0.1c0.9,0,1.5,0.2,1.9,0.7
			S68.5,9.7,68.5,10.6z M66.5,11c-0.8,0-1.4,0.1-1.7,0.3c-0.3,0.2-0.5,0.5-0.5,0.9c0,0.4,0.1,0.6,0.3,0.8c0.2,0.2,0.5,0.3,0.9,0.3
			c0.5,0,1-0.2,1.3-0.6c0.3-0.4,0.5-0.9,0.5-1.5V11H66.5z"/>
		<path class="st4" d="M70.5,5.6h1v1.3h-1V5.6z M70.5,8h1v6h-1V8z"/>
		<path class="st4" d="M73.5,5.6h1V14h-1V5.6z"/>
		<path class="st4" d="M80.4,8.2v0.9c-0.3-0.1-0.6-0.3-0.9-0.3c-0.3-0.1-0.6-0.1-0.9-0.1c-0.5,0-0.9,0.1-1.1,0.2
			c-0.2,0.2-0.4,0.4-0.4,0.7c0,0.2,0.1,0.4,0.3,0.5c0.2,0.1,0.5,0.3,1.1,0.4l0.3,0.1c0.7,0.2,1.2,0.4,1.5,0.6
			c0.3,0.3,0.4,0.7,0.4,1.1c0,0.6-0.2,1-0.7,1.3c-0.4,0.3-1,0.5-1.8,0.5c-0.3,0-0.7,0-1-0.1c-0.3-0.1-0.7-0.2-1.1-0.3v-1
			c0.4,0.2,0.7,0.3,1.1,0.4s0.7,0.1,1.1,0.1c0.5,0,0.8-0.1,1.1-0.2c0.3-0.2,0.4-0.4,0.4-0.7c0-0.3-0.1-0.5-0.3-0.6
			c-0.2-0.1-0.6-0.3-1.2-0.4l-0.3-0.1c-0.6-0.1-1.1-0.3-1.3-0.6c-0.3-0.3-0.4-0.6-0.4-1.1c0-0.6,0.2-1,0.6-1.3
			c0.4-0.3,1-0.5,1.7-0.5c0.4,0,0.7,0,1,0.1S80.2,8.1,80.4,8.2z"/>
	</g>
</g>
</svg>
