<?xml version="1.0" encoding="utf-8"?>
<!-- Generator: Adobe Illustrator 24.1.0, SVG Export Plug-In . SVG Version: 6.00 Build 0)  -->
<svg version="1.1" id="Layer_1" xmlns="http://www.w3.org/2000/svg" xmlns:xlink="http://www.w3.org/1999/xlink" x="0px" y="0px"
	 viewBox="0 0 90 20" style="enable-background:new 0 0 90 20;" xml:space="preserve">
<style type="text/css">
	.st0{fill:#555555;}
	.st1{fill:#44CC11;}
	.st2{fill:url(#SVGID_1_);}
	.st3{fill:#FFFFFF;}
	.st4{font-family:'DejaVuSans';}
	.st5{font-size:11px;}
</style>
<path class="st0" d="M3,0h84c1.7,0,3,1.3,3,3v14c0,1.7-1.3,3-3,3H3c-1.7,0-3-1.3-3-3V3C0,1.3,1.3,0,3,0z"/>
<path class="st1" d="M40,0h47c1.7,0,3,1.3,3,3v14c0,1.7-1.3,3-3,3H40c-1.7,0-3-1.3-3-3V3C37,1.3,38.3,0,40,0z"/>
<path class="st1" d="M37,0h4v20h-4V0z"/>
<linearGradient id="SVGID_1_" gradientUnits="userSpaceOnUse" x1="-17.3" y1="72.35" x2="-17.3" y2="71.35" gradientTransform="matrix(90 0 0 -20 1602 1447)">
	<stop  offset="0" style="stop-color:#BBBBBB;stop-opacity:0.1"/>
	<stop  offset="1" style="stop-color:#000000;stop-opacity:0.1"/>
</linearGradient>
<path class="st2" d="M3,0h84c1.7,0,3,1.3,3,3v14c0,1.7-1.3,3-3,3H3c-1.7,0-3-1.3-3-3V3C0,1.3,1.3,0,3,0z"/>
<g>
	<text transform="matrix(1 0 0 1 3.573 14)" class="st3 st4 st5">game</text>
	<text transform="matrix(1 0 0 1 44.6467 14)" class="st3 st4 st5">details</text>
</g>
</svg>
